2.2Hz3min_grf.mot
version=1
nRows=30
nColumns 19
inDegrees=yes
endheader
time	1_ground_force_vx	1_ground_force_vy	1_ground_force_vz	1_ground_force_px	1_ground_force_py	1_ground_force_pz	1_ground_torque_x	1_ground_torque_y	1_ground_torque_z	2_ground_force_vx	2_ground_force_vy	2_ground_force_vz	2_ground_force_px	2_ground_force_py	2_ground_force_pz	2_ground_torque_x	2_ground_torque_y	2_ground_torque_z
            1.253500	            0.184414	           -0.722600	            0.363300	           -0.233013	            0.005581	           -0.255695	           -0.071617	            0.009569	           -0.048331	            0.140282	            0.002683	           -0.610125	           -0.232311	            0.006130	           -0.833667	           -0.037827	            0.075351	            0.037986
            1.254000	            0.229559	           -1.262012	            0.039876	           -0.233013	            0.005581	           -0.255695	           -0.170270	            0.083587	           -0.064593	           -0.090062	           -1.102383	           -0.801680	           -0.232311	            0.006130	           -0.833667	           -0.037707	            0.037675	            0.000151
            1.254500	            0.322138	           -0.542701	            0.455444	           -0.233013	            0.005581	           -0.255695	           -0.150762	            0.000457	           -0.061114	           -0.090623	           -0.919072	           -0.566383	           -0.232311	            0.006130	           -0.833667	            0.037452	            0.028628	           -0.037615
            1.255000	           -0.045711	           -0.721072	           -0.002978	           -0.233013	            0.005581	           -0.255695	           -0.131226	            0.000437	           -0.114390	           -0.092720	           -0.365790	           -0.799052	           -0.232311	            0.006130	           -0.833667	           -0.000179	            0.047331	           -0.018682
            1.255500	           -0.137316	           -0.541020	            0.043878	           -0.233013	            0.005581	           -0.255695	           -0.095583	            0.037055	           -0.043045	            0.047932	           -0.366119	           -0.564471	           -0.232311	            0.006130	           -0.833667	           -0.075465	            0.084937	           -0.037365
            1.256000	            0.138655	           -1.804006	            0.312920	           -0.233013	            0.005581	           -0.255695	           -0.144205	            0.037504	           -0.106342	            0.049241	           -0.734248	           -0.612713	           -0.232311	            0.006130	           -0.833667	            0.018750	            0.018704	            0.075460
            1.256500	            0.046643	           -1.262834	            0.223755	           -0.233013	            0.005581	           -0.255695	           -0.103064	            0.055873	           -0.091495	            0.328305	           -0.180454	           -0.704718	           -0.232311	            0.006130	           -0.833667	            0.018504	            0.075757	           -0.018588
            1.257000	            0.138604	           -0.902875	            0.362641	           -0.233013	            0.005581	           -0.255695	           -0.183912	            0.046096	            0.044147	            0.050570	           -1.102545	           -0.614028	           -0.232311	            0.006130	           -0.833667	           -0.056288	           -0.019109	           -0.000043
            1.257500	            0.184283	           -0.001537	            0.366392	           -0.233013	            0.005581	           -0.255695	           -0.109618	           -0.027412	           -0.048421	            0.279482	            0.371655	           -0.655799	           -0.232311	            0.006130	           -0.833667	           -0.056543	            0.047194	           -0.037508
            1.258000	            0.046870	           -1.263227	            0.315467	           -0.233013	            0.005581	           -0.255695	           -0.144409	           -0.036727	           -0.054194	            0.236682	           -0.733906	           -0.518937	           -0.232311	            0.006130	           -0.833667	           -0.056509	            0.037742	           -0.037542
            1.258500	           -0.044507	           -1.083569	            0.454035	           -0.233013	            0.005581	           -0.255695	           -0.094226	           -0.027270	           -0.114588	            0.048556	           -0.549933	           -0.658985	           -0.232311	            0.006130	           -0.833667	           -0.112909	            0.056242	            0.019101
            1.259000	            0.183552	           -0.360693	            0.043855	           -0.233013	            0.005581	           -0.255695	           -0.095621	            0.055608	           -0.010491	            0.002994	           -0.918064	           -0.754135	           -0.232311	            0.006130	           -0.833667	           -0.056365	            0.009048	            0.056608
            1.259500	           -0.182572	           -1.262878	            0.224324	           -0.233013	            0.005581	           -0.255695	           -0.196990	            0.028099	           -0.119953	            0.235935	           -0.549089	           -0.705992	           -0.232311	            0.006130	           -0.833667	           -0.075330	            0.056310	            0.037935
            1.260000	           -0.044246	           -1.264228	            0.544974	           -0.233013	            0.005581	           -0.255695	           -0.116711	            0.037272	           -0.076653	            0.003056	           -0.918566	           -0.613351	           -0.232311	            0.006130	           -0.833667	           -0.112916	            0.047125	           -0.075184
            1.260500	            0.046478	           -0.361506	            0.227620	           -0.233013	            0.005581	           -0.255695	           -0.084825	            0.055796	           -0.072775	            0.094659	           -0.364946	           -0.846060	           -0.232311	            0.006130	           -0.833667	           -0.094071	            0.037539	           -0.018675
            1.261000	            0.046984	           -1.263424	            0.361323	           -0.233013	            0.005581	           -0.255695	           -0.146281	            0.018573	           -0.016356	            0.236620	           -0.733404	           -0.659721	           -0.232311	            0.006130	           -0.833667	           -0.019067	            0.075621	           -0.018572
            1.261500	            0.138541	           -1.803810	            0.267065	           -0.233013	            0.005581	           -0.255695	           -0.160833	            0.027933	           -0.031149	            0.094679	           -0.365113	           -0.799132	           -0.232311	            0.006130	           -0.833667	           -0.093893	           -0.009792	            0.000006
            1.262000	            0.001042	           -0.722636	            0.363755	           -0.233013	            0.005581	           -0.255695	           -0.202951	            0.027785	           -0.018149	           -0.046494	           -0.181807	           -0.704559	           -0.232311	            0.006130	           -0.833667	           -0.037657	            0.028088	            0.037818
            1.262500	            0.275759	           -0.721993	            0.225505	           -0.233013	            0.005581	           -0.255695	           -0.065980	            0.037740	           -0.138305	            0.144955	           -1.286522	           -0.567796	           -0.232311	            0.006130	           -0.833667	           -0.037529	           -0.000472	            0.094267
            1.263000	            0.275825	           -1.082524	            0.223959	           -0.233013	            0.005581	           -0.255695	           -0.065613	            0.065229	           -0.081781	            0.190332	           -0.916885	           -0.894999	           -0.232311	            0.006130	           -0.833667	            0.074980	            0.038284	           -0.056448
            1.263500	            0.092941	           -1.263611	            0.407065	           -0.233013	            0.005581	           -0.255695	           -0.185732	            0.036994	            0.004574	            0.096735	           -0.918060	           -0.660319	           -0.232311	            0.006130	           -0.833667	           -0.075184	            0.009249	           -0.018785
            1.264000	            0.046868	           -0.001761	            0.412589	           -0.233013	            0.005581	           -0.255695	           -0.111513	            0.074042	           -0.016249	            0.237285	           -0.917553	           -0.660378	           -0.232311	            0.006130	           -0.833667	           -0.131617	            0.037202	            0.037891
            1.264500	           -0.090449	           -0.542781	            0.456468	           -0.233013	            0.005581	           -0.255695	           -0.150906	            0.037402	           -0.116144	            0.049262	           -0.734416	           -0.565785	           -0.232311	            0.006130	           -0.833667	           -0.094080	            0.037606	           -0.037526
            1.265000	            0.230746	           -0.903643	            0.545837	           -0.233013	            0.005581	           -0.255695	           -0.023141	            0.009847	           -0.102883	            0.094865	           -0.366619	           -0.376779	           -0.232311	            0.006130	           -0.833667	           -0.000135	            0.028627	           -0.075300
            1.265500	            0.092551	           -1.623356	            0.222095	           -0.233013	            0.005581	           -0.255695	           -0.027454	            0.027694	            0.022952	            0.138912	            0.371315	           -0.702667	           -0.232311	            0.006130	           -0.833667	           -0.037834	            0.066235	           -0.056299
            1.266000	           -0.045388	           -0.000795	            0.183537	           -0.233013	            0.005581	           -0.255695	           -0.139427	            0.055741	           -0.076562	            0.049303	           -0.734750	           -0.471929	           -0.232311	            0.006130	           -0.833667	           -0.169392	            0.084598	           -0.037325
            1.266500	            0.229427	           -0.540949	            0.042968	           -0.233013	            0.005581	           -0.255695	           -0.170494	            0.046210	            0.029212	            0.377067	           -0.732060	           -0.894422	           -0.232311	            0.006130	           -0.833667	           -0.037759	            0.056446	            0.037919
            1.267000	            0.092486	           -1.262825	            0.223641	           -0.233013	            0.005581	           -0.255695	           -0.215403	            0.009171	            0.023327	           -0.002220	            0.554286	           -0.514238	           -0.232311	            0.006130	           -0.833667	            0.018676	            0.019309	           -0.094192
            1.267500	           -0.044947	           -0.542182	            0.318786	           -0.233013	            0.005581	           -0.255695	           -0.126067	           -0.018360	           -0.039297	            0.047206	           -0.181469	           -0.704599	           -0.232311	            0.006130	           -0.833667	           -0.000136	            0.037811	            0.000135
            1.268000	           -0.182653	           -1.442947	            0.177695	           -0.233013	            0.005581	           -0.255695	           -0.063556	            0.000474	           -0.139195	            0.048056	           -0.367123	           -0.282903	           -0.232311	            0.006130	           -0.833667	           -0.018931	            0.046994	            0.056727
